<?xml version="1.0" encoding="iso-8859-1"?>
<!-- Uploaded to: SVG Repo, www.svgrepo.com, Generator: SVG Repo Mixer Tools -->
<svg height="800px" width="800px" version="1.1" id="Layer_1" xmlns="http://www.w3.org/2000/svg" xmlns:xlink="http://www.w3.org/1999/xlink" 
	 viewBox="0 0 511.995 511.995" xml:space="preserve">
<circle style="fill:#3A99D7;" cx="255.997" cy="255.997" r="255.997"/>
<path style="fill:#2682BF;" d="M511.427,239.258L395.725,123.557l-11.352,21.214l-89.328-89.328l-18.232,46.154l-74.822,63.527
	l50.626,52.69l-2.006,3.784l-94.316-97.985l-13.645,31.133l1.376,8.715l-8.428-8.428l-39.618,39.618l63.011,63.011l26.316,165.64
	l88.066,88.066C406.618,502.368,511.885,391.483,511.885,256c0-5.618-0.229-11.18-0.573-16.741L511.427,239.258L511.427,239.258z"/>
<path style="fill:#C94545;" d="M351.29,371.587c0,0.802,0.057,1.605,0.057,2.409l0,0c0,42.485-39.848,81.645-88.524,81.645l0,0
	c-48.677,0-88.524-39.16-88.524-81.645l0,0c0-0.803,0-1.605,0.057-2.409c-0.057-0.458-0.057-0.975-0.057-1.433V228.881l26.145-6.937
	l13.588,6.937v141.044l0.057,1.319l-0.057,1.491c0,0.458,0,0.918,0,1.319c0,23.335,22.017,42.542,48.792,42.542
	s48.792-19.207,48.792-42.542c0-0.458,0-0.918-0.057-1.319l-0.057-1.491l0.057-1.319V228.881l26.145-6.937l13.588,6.937v141.273
	c0,0.516,0,0.975-0.057,1.433L351.29,371.587L351.29,371.587z"/>
<path style="fill:#C5C6C6;" d="M200.385,260.3v-38.357l13.588,6.937v36.752L200.385,260.3z M337.702,260.3v-38.357l13.588,6.937
	v36.752L337.702,260.3z"/>
<path style="fill:#E84F4F;" d="M337.702,364.649c0,0.802,0.057,1.605,0.057,2.409l0,0c0,42.485-39.848,83.078-88.525,83.078l0,0
	c-48.677,0-88.524-40.65-88.524-83.078l0,0c0-0.802,0-1.605,0.057-2.409c-0.057-0.458-0.057-0.975-0.057-1.433V221.944h39.733
	v141.044l0.057,1.319l-0.057,1.491c0,0.458,0,0.918,0,1.319c0,23.335,22.017,42.542,48.792,42.542s48.792-19.207,48.792-42.542
	c0-0.458,0-0.918-0.057-1.319l-0.057-1.491l0.057-1.319V221.944h39.733v141.273c0,0.516,0,0.975-0.057,1.433L337.702,364.649
	L337.702,364.649z"/>
<g>
	<path style="fill:#F7F7F8;" d="M160.652,260.3v-38.357h39.733V260.3H160.652z M298.026,260.3v-38.357h39.733V260.3H298.026z"/>
	<path style="fill:#F7F7F8;" d="M266.779,191.556l-8.944,43.804l19.608-1.319l-32.28,60.03l8.944-43.804l-19.608,1.319
		L266.779,191.556z"/>
</g>
<path style="fill:#FFC964;" d="M240.863,113.58l0.458,9.575c0.401,3.669,0.802,7.339,1.032,11.009
	c0.458,7.339,0.344,15.251,0.975,22.475c5.906-0.975,11.639-3.669,18.404-2.121c19.15,4.358,17.086,5.906,39.274,3.096
	c7.511-0.975,11.295-4.3,9.059-12.327c7.281-2.466,9.69-5.103,6.651-13.359c7.052-2.867,7.511-9.117,3.039-14.448
	c11.009-4.988,6.364-13.416-0.688-15.193c-7.109-1.777-20.124,0.229-25.228-3.44c-5.906-4.3,0.688-15.653,3.153-20.813
	c3.211-6.593,3.898-17.888-1.835-22.475c-7.454-5.963-4.3,7.339-9.919,15.882c-7.97,11.925-15.193,15.825-19.379,23.22
	c-1.892,3.325-3.211,6.479-5.332,9.289c-7.052,9.346-12.728,6.192-19.551,9.69L240.863,113.58z"/>
<path style="fill:#006775;" d="M202.105,111.229l-0.057,53.895l42.943-2.408l-3.325-53.895L202.105,111.229z"/>
<path style="fill:#FFC964;" d="M121.206,161.283l0.286,6.192c0.286,2.408,0.516,4.759,0.63,7.109
	c0.286,4.759,0.229,9.919,0.63,14.563c3.841-0.63,7.569-2.408,11.925-1.376c12.385,2.81,11.066,3.841,25.457,2.006
	c4.873-0.63,7.339-2.81,5.906-7.97c4.759-1.605,6.307-3.325,4.3-8.657c4.587-1.835,4.873-5.906,1.949-9.346
	c7.109-3.268,4.129-8.715-0.458-9.862s-13.072,0.115-16.34-2.236c-3.841-2.752,0.458-10.148,2.064-13.531
	c2.064-4.243,2.523-11.582-1.204-14.563c-4.816-3.898-2.752,4.759-6.422,10.263c-5.16,7.74-9.862,10.263-12.557,15.079
	c-1.204,2.121-2.064,4.186-3.497,6.02C129.29,161.053,125.62,158.99,121.206,161.283z"/>
<path style="fill:#006775;" d="M96.093,159.735l-0.057,34.916l27.865-1.548l-2.178-34.916L96.093,159.735z"/>
<path style="fill:#FFC964;" d="M360.579,161.283l0.286,6.192c0.286,2.408,0.516,4.759,0.63,7.109
	c0.286,4.759,0.229,9.919,0.63,14.563c3.841-0.63,7.569-2.408,11.925-1.376c12.385,2.81,11.066,3.841,25.457,2.006
	c4.873-0.63,7.339-2.81,5.906-7.97c4.759-1.605,6.307-3.325,4.3-8.657c4.587-1.835,4.873-5.906,1.949-9.346
	c7.109-3.268,4.129-8.715-0.458-9.862c-4.587-1.147-13.072,0.115-16.34-2.236c-3.841-2.752,0.458-10.148,2.064-13.531
	c2.064-4.243,2.523-11.582-1.204-14.563c-4.816-3.898-2.752,4.759-6.422,10.263c-5.16,7.74-9.861,10.263-12.557,15.079
	c-1.204,2.121-2.064,4.186-3.497,6.02C368.663,161.053,364.994,158.99,360.579,161.283z"/>
<path style="fill:#006775;" d="M335.466,159.735l-0.057,34.916l27.865-1.548l-2.178-34.916L335.466,159.735z"/>
</svg>